<?xml version="1.0" standalone="no"?>
<!DOCTYPE svg PUBLIC "-//W3C//DTD SVG 20010904//EN"
 "http://www.w3.org/TR/2001/REC-SVG-20010904/DTD/svg10.dtd">
<svg version="1.0" xmlns="http://www.w3.org/2000/svg"
 width="450.000000pt" height="290.000000pt" viewBox="0 0 450.000000 290.000000"
 preserveAspectRatio="xMidYMid meet">
<metadata>
Created by potrace 1.10, written by Peter Selinger 2001-2011
</metadata>
<g transform="translate(0.000000,290.000000) scale(0.050000,-0.050000)"
fill="#currentColor" stroke="none">
<path d="M6633 5491 c-47 -50 -47 -50 -83 -11 -73 81 -170 32 -170 -85 0 -99
75 -122 150 -47 45 45 49 46 60 12 27 -85 157 -50 182 49 25 102 -69 157 -139
82z"/>
<path d="M6199 5439 c-45 -84 46 -130 113 -57 37 41 37 42 -1 70 -54 39 -86
35 -112 -13z"/>
<path d="M6812 5448 c-23 -59 -12 -70 63 -64 60 5 76 15 81 51 8 56 -123 68
-144 13z"/>
<path d="M6891 5256 c-24 -35 -36 -39 -55 -20 -38 38 -111 28 -145 -20 l-31
-45 -31 45 c-39 54 -92 56 -138 5 -35 -39 -36 -39 -93 4 l-58 42 -50 -47
c-112 -105 -1 -250 113 -147 34 31 40 31 74 0 51 -47 94 -41 142 20 29 37 41
43 41 20 0 -95 167 -80 192 18 8 30 23 47 38 42 28 -11 110 39 110 67 0 49
-78 60 -109 16z"/>
<path d="M5005 5219 c-7 -29 -20 -37 -43 -28 -82 35 -118 32 -149 -13 l-32
-46 -42 44 c-50 54 -60 54 -126 3 -48 -38 -56 -39 -84 -10 -70 69 -178 3 -165
-102 8 -72 93 -90 152 -31 37 37 39 37 61 1 29 -46 98 -48 146 -5 32 30 38 30
68 0 61 -61 153 -28 186 69 12 34 31 56 43 49 13 -8 14 -25 0 -50 -31 -59 -24
-80 25 -71 25 4 60 9 78 10 43 1 64 59 34 94 -12 15 -17 34 -10 41 8 7 25 -3
40 -23 30 -41 113 -13 113 37 0 39 -54 78 -83 60 -34 -21 -118 -23 -130 -4
-19 31 -71 15 -82 -25z"/>
<path d="M3961 5211 c-20 -24 -32 -25 -64 -5 -39 24 -97 -19 -97 -70 0 -32 65
-42 105 -18 54 34 87 0 52 -55 -34 -55 -23 -61 84 -45 66 11 99 7 117 -13 45
-48 182 24 182 95 0 93 -117 126 -176 50 -22 -27 -50 -50 -62 -50 -27 0 -29
53 -2 70 36 22 21 55 -20 44 -22 -6 -45 -2 -51 8 -16 26 -41 22 -68 -11z"/>
<path d="M5344 5176 c-13 -13 -24 -40 -24 -60 0 -51 131 -51 158 1 37 68 -76
117 -134 59z"/>
<path d="M6053 5152 c-16 -43 15 -56 98 -41 89 17 80 57 -15 65 -49 4 -74 -3
-83 -24z"/>
<path d="M3618 5122 c-64 -52 -27 -97 70 -86 95 11 135 58 82 96 -51 38 -97
35 -152 -10z"/>
<path d="M6318 4953 c-21 -35 -38 -52 -38 -39 0 71 -147 77 -170 7 -11 -35
-15 -34 -60 11 -69 69 -170 14 -170 -92 0 -79 144 -105 172 -31 9 22 19 20 50
-11 40 -40 108 -51 127 -19 7 10 43 13 82 7 51 -8 81 -2 109 24 35 32 40 32
40 4 0 -93 110 -45 139 61 41 149 3 191 -93 102 -36 -35 -46 -37 -46 -13 0 65
-100 56 -142 -11z"/>
<path d="M5335 4972 c-19 -14 -35 -37 -35 -51 0 -13 -7 -21 -15 -17 -8 4 -40
20 -70 35 -51 25 -60 24 -107 -21 -47 -44 -52 -45 -70 -13 -27 47 -131 46
-161 -2 -22 -36 -24 -36 -60 0 -63 63 -150 33 -182 -63 -27 -84 107 -140 165
-69 23 27 29 27 59 0 19 -17 55 -31 81 -31 26 0 62 14 81 31 30 27 36 27 59 0
30 -37 86 -40 145 -8 32 17 45 17 51 0 13 -40 78 -25 112 27 76 116 37 251
-53 182z"/>
<path d="M5731 4941 c-53 -101 -42 -185 22 -177 64 7 132 122 114 191 -18 68
-98 60 -136 -14z"/>
<path d="M4549 4960 c-22 -9 -52 -29 -66 -46 -22 -26 -32 -27 -77 -3 -58 29
-119 10 -140 -43 -9 -25 -18 -23 -49 11 -49 52 -101 52 -147 1 l-37 -40 -37
40 c-51 55 -105 50 -155 -13 l-41 -52 0 63 c0 88 -53 104 -113 35 -45 -53 -48
-53 -98 -21 -49 32 -54 32 -111 -10 -53 -40 -62 -41 -90 -13 -39 39 -116 40
-147 3 -20 -25 -31 -24 -81 4 -77 44 -170 -15 -170 -108 0 -63 121 -97 177
-50 15 12 35 13 54 1 45 -28 131 -22 159 12 23 27 29 27 59 0 41 -37 88 -39
146 -8 32 17 45 17 51 0 12 -36 67 -27 115 18 38 36 46 37 68 10 34 -40 118
-40 164 1 32 30 38 30 68 0 39 -40 89 -41 140 -4 34 25 43 25 73 -1 37 -34
156 -20 156 18 0 13 12 7 26 -12 62 -86 201 72 160 181 -12 31 -26 37 -57 26z"/>
<path d="M6664 4955 c-49 -60 -35 -151 26 -167 84 -21 166 82 127 157 -21 41
-122 47 -153 10z"/>
<path d="M2860 4880 c-27 -50 -24 -55 30 -60 77 -9 93 0 86 45 -8 62 -86 72
-116 15z"/>
<path d="M5779 4708 c-20 -24 -21 -40 -4 -67 12 -20 17 -57 11 -82 -12 -43 -8
-44 87 -35 66 6 107 1 123 -17 27 -28 75 -17 131 31 33 28 38 28 56 -3 28 -51
108 -43 153 14 l38 49 23 -49 c41 -90 183 -30 183 78 0 83 -98 109 -156 42
l-47 -54 -29 42 c-35 49 -112 56 -147 14 -22 -26 -31 -26 -73 2 -59 39 -141
22 -158 -33 -7 -22 -27 -40 -43 -40 -22 0 -27 11 -17 35 8 19 19 47 25 62 8
20 0 24 -30 14 -23 -7 -47 -3 -54 8 -19 30 -42 26 -72 -11z"/>
<path d="M3770 4647 c-28 -28 -40 -29 -81 -6 -44 23 -55 21 -101 -23 -48 -45
-53 -46 -77 -13 -34 47 -94 44 -149 -7 l-45 -42 -30 42 c-37 53 -90 54 -136 3
-35 -39 -36 -39 -93 4 l-58 43 -56 -42 c-54 -40 -57 -40 -102 -4 -47 39 -162
9 -162 -43 0 -10 -13 -19 -30 -19 -36 0 -37 10 -8 64 20 38 18 41 -24 30 -25
-7 -56 -4 -69 7 -41 34 -84 -42 -74 -131 l8 -81 114 -2 c62 -2 138 -5 169 -6
31 -2 69 6 84 19 18 15 30 15 39 1 20 -31 116 -25 167 10 24 17 44 22 44 11 0
-33 86 -46 148 -23 34 13 66 15 79 4 30 -24 128 -12 165 19 23 18 35 19 53 1
44 -44 131 -27 178 37 25 33 61 60 80 60 48 0 83 66 52 97 -31 31 -46 29 -85
-10z"/>
<path d="M6607 4569 c-7 -17 -7 -36 0 -43 17 -17 75 35 62 56 -17 28 -49 21
-62 -13z"/>
<path d="M2305 4547 c-67 -27 -26 -89 50 -75 93 17 105 23 105 59 0 29 -98 39
-155 16z"/>
<path d="M7424 4441 c-34 -56 -37 -57 -60 -20 -34 55 -116 50 -155 -10 -70
-107 32 -212 120 -124 47 47 51 48 51 12 0 -73 97 -50 131 30 64 155 -6 245
-87 112z"/>
<path d="M6832 4435 c-54 -85 -50 -185 8 -185 60 0 131 123 110 190 -17 53
-82 51 -118 -5z"/>
<path d="M5551 4389 c-67 -140 0 -236 91 -129 31 36 33 36 65 -2 43 -50 126
-49 158 2 13 22 30 40 37 40 8 0 18 -18 24 -40 13 -52 96 -53 143 -2 34 38 35
38 73 0 62 -62 144 -36 166 52 28 112 -91 180 -155 88 l-29 -42 -42 42 c-53
53 -86 53 -132 2 -31 -34 -41 -36 -68 -13 -53 45 -96 52 -135 22 -51 -38 -67
-36 -67 11 0 73 -90 51 -129 -31z"/>
<path d="M7013 4423 c-61 -68 -31 -183 48 -183 47 0 99 65 99 123 0 93 -85
129 -147 60z"/>
<path d="M5022 4412 c-18 -22 -38 -25 -72 -12 -36 14 -59 8 -98 -22 l-51 -40
-62 46 -62 46 -50 -57 c-96 -112 -24 -236 97 -167 61 35 64 35 98 0 56 -57 1
-123 -74 -89 -46 21 -59 19 -97 -16 -52 -49 -82 -52 -98 -11 -17 43 -107 37
-147 -9 -33 -39 -34 -39 -61 0 -34 49 -68 49 -127 1 -45 -36 -47 -36 -102 4
l-56 42 -60 -45 -59 -44 -41 41 c-50 50 -62 50 -130 -3 -50 -40 -56 -41 -73
-10 -24 42 -104 43 -145 2 -28 -28 -36 -27 -82 3 -45 29 -59 30 -106 7 -30
-15 -72 -28 -94 -28 -31 -1 -41 -17 -46 -75 -8 -89 129 -131 223 -70 42 28 50
28 78 1 36 -36 151 -20 168 23 8 21 19 18 47 -10 40 -40 106 -35 163 14 28 24
34 23 44 -3 15 -40 111 -40 166 -1 38 26 46 26 67 0 32 -39 80 -38 137 2 42
30 48 29 85 -4 38 -35 43 -35 106 0 81 43 173 10 120 -42 -15 -16 -35 -42 -45
-59 -15 -29 -23 -28 -70 3 -55 36 -153 3 -153 -50 0 -11 -18 -2 -40 20 -51 51
-104 51 -150 0 l-36 -40 -28 40 c-36 51 -110 51 -156 0 l-37 -40 -37 40 c-49
52 -85 51 -136 -5 -27 -29 -47 -37 -56 -23 -37 57 -99 68 -152 26 -47 -37 -55
-38 -83 -9 -49 48 -120 38 -167 -24 l-41 -55 0 75 c-1 128 -119 68 -160 -82
-29 -105 20 -138 112 -73 38 26 46 26 67 0 32 -38 86 -38 159 -1 50 26 60 26
81 1 25 -30 107 -23 153 14 15 11 39 9 65 -7 32 -21 54 -21 110 0 56 20 78 20
110 0 33 -21 53 -19 112 9 65 31 76 31 103 4 40 -40 72 -38 132 10 43 33 53
35 62 10 13 -33 106 -40 152 -11 19 12 35 11 43 -2 53 -86 174 40 170 178 -1
51 8 88 23 94 14 6 36 33 48 60 13 28 39 51 58 51 55 0 91 56 64 100 -19 30
-15 42 24 68 27 17 54 49 60 70 8 24 34 42 67 46 43 5 54 17 54 56 0 58 -52
76 -88 32z"/>
<path d="M3958 4387 c-19 -23 -20 -39 -3 -66 12 -20 17 -57 11 -82 -12 -43 -8
-44 92 -35 57 6 108 3 114 -7 17 -28 121 -19 148 12 21 26 27 26 53 0 58 -57
187 -7 187 73 0 111 -86 152 -160 78 -40 -40 -40 -40 -80 0 -52 52 -71 50
-132 -10 -27 -27 -63 -50 -79 -50 -26 0 -25 7 3 50 18 28 29 51 25 51 -104 17
-157 13 -179 -14z"/>
<path d="M6360 4340 c0 -45 57 -54 122 -19 55 29 28 59 -53 59 -56 0 -69 -8
-69 -40z"/>
<path d="M1652 4330 c-51 -52 -40 -90 26 -90 71 0 92 45 43 89 -33 30 -39 30
-69 1z"/>
<path d="M1791 4278 c-141 -123 -90 -163 189 -149 94 5 181 9 195 9 14 0 54 0
90 0 36 0 116 1 178 1 124 0 177 32 177 108 0 89 -93 124 -162 61 -33 -29 -39
-29 -81 0 -61 43 -96 40 -149 -10 l-45 -42 -22 42 c-29 54 -81 53 -139 0 l-45
-42 -45 42 c-57 54 -57 54 -141 -20z"/>
<path d="M3795 4318 c-43 -24 -45 -65 -6 -97 23 -19 39 -17 79 12 50 36 69 87
34 87 -10 0 -31 4 -45 9 -15 6 -43 1 -62 -11z"/>
<path d="M2683 4288 c-54 -38 -55 -81 -2 -98 40 -13 119 35 119 72 0 40 -74
56 -117 26z"/>
<path d="M7693 4225 c-43 -69 -4 -205 58 -205 69 0 105 46 70 88 -11 15 -12
34 0 53 29 46 22 64 -21 53 -22 -6 -45 -2 -51 8 -14 22 -43 23 -56 3z"/>
<path d="M6923 4195 c-41 -41 -27 -95 25 -95 39 0 72 32 72 71 0 26 -76 45
-97 24z"/>
<path d="M7061 4147 c-92 -117 22 -227 131 -125 l45 42 22 -42 c28 -53 89 -54
142 -1 l41 41 34 -43 c62 -76 184 -3 184 111 0 80 -166 85 -191 5 l-15 -44
-16 44 c-24 64 -112 80 -162 30 -40 -40 -41 -40 -78 -3 -52 52 -87 48 -137
-15z"/>
<path d="M5441 4107 c-93 -118 9 -224 132 -137 38 26 46 26 67 0 32 -39 98
-38 142 2 31 28 39 28 82 0 63 -41 127 -21 156 48 46 111 -56 186 -143 107
-34 -31 -40 -31 -74 0 -48 44 -81 42 -137 -11 l-47 -44 -31 44 c-41 59 -96 55
-147 -9z"/>
<path d="M6104 4116 c-29 -29 -32 -109 -4 -126 21 -13 118 49 119 76 2 54 -77
88 -115 50z"/>
<path d="M5252 4077 c-56 -80 -2 -137 79 -85 58 38 62 64 14 100 -48 36 -58
35 -93 -15z"/>
<path d="M2193 4059 c-18 -26 -34 -34 -42 -20 -21 33 -107 25 -146 -15 -34
-35 -37 -35 -90 4 l-55 40 -57 -43 -57 -42 -43 42 c-44 45 -183 10 -183 -45 0
-11 -10 -20 -22 -20 -14 0 -16 23 -7 65 13 60 12 62 -22 35 -27 -23 -37 -24
-44 -5 -13 39 -61 29 -87 -18 -18 -35 -16 -46 11 -62 32 -17 32 -21 -1 -57
-19 -21 -30 -42 -25 -48 22 -21 353 -33 366 -12 9 15 24 14 51 -3 29 -18 59
-18 120 -2 44 12 86 14 92 4 28 -45 127 -16 179 53 30 39 70 70 89 70 55 0 91
53 60 90 -33 40 -52 38 -87 -11z"/>
<path d="M7980 3940 c-17 -32 -30 -36 -60 -20 -56 30 -73 25 -129 -35 -41 -44
-51 -48 -51 -19 0 89 -134 81 -183 -12 -56 -105 85 -179 159 -84 37 47 40 48
50 10 24 -94 161 -65 184 39 7 33 22 61 33 61 12 0 15 -24 8 -57 -14 -62 73
-105 119 -60 40 39 30 202 -12 191 -21 -6 -43 -2 -49 8 -18 30 -46 21 -69 -22z"/>
<path d="M7380 3900 c-45 -45 -52 -120 -16 -156 38 -38 112 -28 137 17 58 110
-39 221 -121 139z"/>
<path d="M5859 3889 c-17 -21 -43 -27 -83 -18 -38 8 -75 1 -110 -22 -47 -31
-53 -31 -70 -1 -25 44 -102 40 -145 -6 -34 -38 -35 -38 -73 0 -52 52 -87 48
-137 -15 -96 -123 17 -232 131 -125 l44 41 13 -41 c18 -54 98 -55 151 -2 22
22 40 31 40 20 0 -86 181 -53 209 38 7 22 32 42 55 46 59 9 96 71 56 96 -41
26 -51 25 -81 -11z"/>
<path d="M7173 3847 c-29 -29 -11 -67 32 -67 59 1 104 30 86 58 -15 24 -96 30
-118 9z"/>
<path d="M1076 3765 c-46 -52 -76 -117 -76 -162 0 -44 486 -60 567 -18 24 12
44 12 56 0 11 -11 50 -13 93 -3 41 9 117 25 170 37 119 25 134 34 134 80 0 52
-55 67 -121 33 -51 -25 -60 -24 -91 10 -44 49 -93 48 -138 -2 l-37 -41 -43 41
c-53 50 -72 50 -136 0 -41 -33 -55 -36 -68 -14 -32 53 -84 53 -145 1 l-61 -51
0 62 c0 72 -53 86 -104 27z"/>
<path d="M5021 3771 c-21 -25 -20 -33 9 -44 41 -15 137 14 139 43 2 34 -120
35 -148 1z"/>
<path d="M7552 3617 c-85 -121 30 -230 133 -127 49 50 50 50 61 9 18 -67 137
-47 163 27 39 113 -93 189 -148 85 l-28 -51 -22 45 c-31 64 -118 70 -159 12z"/>
<path d="M7986 3636 c-63 -81 -39 -176 44 -176 59 0 116 77 107 144 -8 53
-116 77 -151 32z"/>
<path d="M7339 3579 c-29 -56 -2 -84 74 -76 46 6 57 17 57 57 0 69 -96 83
-131 19z"/>
<path d="M8201 3591 c-21 -25 -20 -33 5 -42 51 -20 124 -1 124 31 0 41 -97 50
-129 11z"/>
<path d="M5015 3560 c-44 -34 -54 -36 -75 -10 -58 69 -200 -11 -200 -112 0
-74 109 -88 185 -22 30 26 36 26 47 -3 17 -46 119 -42 168 7 39 39 39 39 60 0
29 -54 91 -50 149 7 45 45 48 45 57 10 28 -105 206 -5 191 107 -10 64 -121 76
-161 18 -28 -40 -29 -40 -62 -1 -45 52 -103 49 -148 -8 l-37 -47 -35 47 c-44
57 -73 59 -139 7z"/>
<path d="M6011 3561 c-76 -84 7 -159 85 -75 43 46 43 46 3 80 -49 42 -45 42
-88 -5z"/>
<path d="M3991 3537 c-49 -38 -56 -39 -89 -9 -47 43 -108 40 -151 -6 -34 -38
-35 -38 -73 0 -49 49 -80 48 -137 -5 -42 -39 -48 -40 -64 -10 -24 42 -113 42
-160 0 -34 -31 -40 -31 -74 0 -54 50 -115 40 -162 -25 -74 -105 -22 -177 103
-141 29 9 89 11 132 5 44 -6 98 0 123 14 33 17 51 18 67 2 31 -31 98 -27 147
8 38 26 46 26 67 0 32 -39 89 -38 150 2 45 29 52 29 82 -1 32 -32 91 -27 140
12 14 10 44 6 78 -11 85 -45 190 33 190 141 0 48 -108 69 -160 30 -34 -25 -63
-34 -70 -23 -32 52 -86 59 -139 17z"/>
<path d="M2936 3510 c-12 -28 -18 -55 -12 -61 20 -20 113 14 125 45 30 77 -78
93 -113 16z"/>
<path d="M1175 3460 c-44 -34 -54 -36 -75 -10 -31 38 -101 38 -151 2 -25 -18
-47 -22 -61 -10 -15 12 -32 7 -49 -13 -22 -27 -22 -35 2 -50 20 -13 21 -18 4
-19 -14 0 -25 -13 -25 -29 0 -46 402 -71 453 -28 20 16 34 16 54 -1 39 -32
156 -13 188 31 71 98 -15 201 -118 141 -56 -32 -66 -32 -96 -5 -45 41 -65 39
-126 -9z"/>
<path d="M1615 3442 c-71 -72 11 -139 87 -71 36 33 36 38 5 72 -40 45 -47 45
-92 -1z"/>
<path d="M7712 3409 c-37 -37 -41 -61 -12 -79 11 -7 15 -34 8 -59 -14 -57 91
-93 143 -50 24 20 37 18 68 -10 45 -41 111 -27 141 29 19 36 22 36 68 -10 60
-60 120 -47 154 34 47 115 -62 181 -154 94 -26 -25 -48 -34 -48 -21 0 13 -22
34 -50 47 -54 24 -130 -21 -130 -77 0 -31 -18 -34 -57 -9 -21 13 -22 26 -5 58
30 57 28 70 -11 56 -17 -7 -43 -3 -57 8 -19 15 -35 12 -58 -11z"/>
<path d="M8326 3331 l2 -111 67 0 c74 0 104 42 65 90 -20 24 -20 36 0 60 32
38 28 41 -63 58 l-74 13 3 -110z"/>
<path d="M5683 3294 c-23 -26 -43 -64 -43 -86 0 -88 106 -119 169 -49 36 39
36 39 72 -5 48 -57 138 -16 162 75 28 104 -54 147 -144 74 -44 -36 -46 -36
-82 0 -49 49 -81 47 -134 -9z"/>
<path d="M6116 3305 c-77 -89 -56 -165 46 -165 73 0 140 119 97 172 -33 39
-107 35 -143 -7z"/>
<path d="M4441 3281 c-57 -57 -73 -137 -35 -175 35 -36 114 -24 163 25 17 18
31 22 31 10 0 -42 87 -58 147 -27 41 21 64 23 79 8 35 -35 125 -25 164 18 l36
40 28 -40 c53 -75 186 2 186 107 0 78 -121 103 -164 35 -23 -38 -24 -38 -73 0
-61 48 -80 48 -135 -4 l-44 -42 -42 42 c-52 52 -64 52 -127 3 -50 -40 -50 -40
-86 0 -45 49 -79 49 -128 0z"/>
<path d="M2965 3286 c-31 -11 -33 -86 -3 -86 13 0 17 -14 8 -35 -8 -19 -19
-48 -25 -63 -9 -22 9 -26 92 -18 57 6 103 2 103 -7 0 -28 108 -19 154 13 37
26 43 26 53 0 14 -35 98 -39 156 -8 30 16 47 16 63 0 30 -30 85 -27 153 8 32
16 61 22 64 12 16 -41 92 -41 144 -1 115 90 32 250 -85 163 -52 -38 -55 -38
-99 -3 -51 42 -97 33 -146 -27 -32 -41 -32 -41 -55 3 -30 54 -104 56 -152 3
l-37 -40 -37 40 c-51 54 -105 50 -152 -10 -43 -55 -96 -68 -76 -20 7 17 17 42
23 56 10 26 -90 40 -146 20z"/>
<path d="M780 3234 c-57 -28 -130 -160 -113 -205 13 -32 124 -41 142 -11 7 11
36 9 71 -4 43 -16 76 -17 116 -2 34 13 75 15 103 4 26 -9 66 -10 89 -3 23 8
89 12 146 10 96 -5 106 -1 133 51 59 116 -50 202 -137 106 l-36 -40 -28 40
c-34 48 -81 51 -142 9 -40 -29 -49 -28 -104 4 -59 35 -60 35 -123 -24 -35 -32
-58 -49 -51 -37 32 56 -14 128 -66 102z"/>
<path d="M8298 3128 c-16 -20 -17 -35 -1 -54 12 -14 16 -45 11 -67 -12 -43 66
-76 126 -53 33 13 34 80 1 92 -20 7 -20 17 0 51 33 57 35 55 -44 57 -38 1 -80
-11 -93 -26z"/>
<path d="M7721 3101 c-30 -55 -27 -201 4 -201 61 1 115 98 115 205 0 49 -92
46 -119 -4z"/>
<path d="M8119 3085 c-69 -88 -34 -176 65 -162 53 8 104 99 87 155 -20 61
-106 65 -152 7z"/>
<path d="M7913 3090 c-71 -71 -40 -190 49 -190 35 0 98 81 98 126 0 87 -87
125 -147 64z"/>
<path d="M5703 3039 c-58 -36 -68 -37 -95 -9 -42 41 -95 38 -138 -10 -43 -47
-70 -51 -70 -11 0 88 -168 36 -192 -60 -24 -95 75 -143 165 -79 38 26 46 26
67 0 34 -41 86 -38 143 8 46 39 48 38 89 0 43 -41 126 -30 157 21 9 14 24 11
44 -9 42 -42 119 -37 152 9 27 38 27 38 51 0 55 -88 184 -20 184 97 0 92 -87
113 -152 37 -42 -48 -46 -49 -58 -15 -18 60 -72 68 -136 21 l-57 -43 -44 42
-44 41 -66 -40z"/>
<path d="M4220 2990 c-46 -49 -47 -49 -74 -10 -55 78 -161 36 -195 -76 -29
-93 58 -131 170 -73 32 16 59 21 59 11 0 -43 85 -46 141 -4 51 38 59 39 75 9
24 -42 115 -41 162 1 32 29 39 30 62 3 63 -76 180 -8 180 105 0 78 -78 110
-137 56 -45 -40 -71 -41 -103 -2 -35 42 -87 37 -130 -10 l-37 -40 -37 40 c-49
53 -79 51 -136 -10z"/>
<path d="M3450 2976 c-51 -40 -57 -41 -80 -10 -32 44 -107 43 -155 -1 -36 -32
-39 -32 -58 0 -40 73 -175 17 -207 -85 -27 -84 77 -130 173 -78 30 16 47 16
63 0 31 -31 99 -27 145 6 34 25 43 25 73 -2 48 -43 131 -18 172 54 18 32 49
62 69 67 19 5 35 20 35 32 0 15 -16 19 -40 11 -24 -8 -52 0 -71 19 -41 41 -53
39 -119 -13z"/>
<path d="M744 2956 c-31 -31 -31 -96 0 -96 19 0 19 -5 0 -24 -73 -73 -22 -95
236 -98 286 -4 299 1 376 114 25 37 23 15 -6 -57 -13 -32 -5 -35 61 -27 93 12
124 39 90 80 -13 17 -19 48 -12 69 18 58 -100 83 -139 30 -22 -30 -32 -32 -53
-12 -37 37 -73 31 -128 -24 l-49 -49 -32 49 c-41 62 -52 61 -132 -8 -82 -71
-130 -64 -81 12 34 51 33 52 -10 40 -25 -6 -50 -3 -56 7 -15 25 -36 23 -65 -6z"/>
<path d="M7700 2816 c-91 -98 -15 -237 91 -167 69 45 69 156 -1 187 -42 20
-55 16 -90 -20z"/>
<path d="M7909 2811 c-73 -74 -50 -171 41 -171 88 0 141 126 79 189 -43 42
-62 39 -120 -18z"/>
<path d="M8111 2816 c-65 -94 -19 -192 79 -168 69 17 104 95 74 162 -30 64
-110 67 -153 6z"/>
<path d="M6152 2796 c-28 -39 -36 -41 -82 -16 -45 24 -59 23 -109 -6 -50 -30
-63 -31 -112 -5 -61 31 -122 14 -143 -41 -9 -24 -16 -22 -40 11 -34 50 -100
53 -149 8 -34 -31 -40 -31 -74 0 -20 18 -53 33 -73 33 -20 0 -53 -15 -73 -33
-34 -31 -40 -31 -74 0 -50 45 -88 41 -141 -15 -104 -111 26 -244 134 -136 37
37 39 37 61 1 29 -46 69 -47 134 -4 46 30 53 30 86 0 47 -43 67 -41 128 7 44
34 54 36 75 10 31 -38 101 -39 150 -2 28 20 47 22 72 6 61 -38 -10 -118 -90
-103 -48 9 -72 2 -100 -29 -37 -41 -37 -41 -87 -1 -28 21 -61 39 -75 39 -13 0
-40 -18 -59 -39 -36 -40 -37 -40 -86 -1 -52 41 -93 33 -144 -29 -24 -29 -29
-28 -55 9 -37 53 -114 51 -150 -4 l-29 -43 -43 43 c-57 57 -92 55 -140 -6 -48
-60 -56 -62 -70 -10 -12 47 -116 56 -151 13 -94 -112 -24 -226 97 -160 74 40
77 40 107 5 36 -42 120 -24 164 37 22 29 25 28 38 -11 16 -52 82 -58 146 -13
40 28 49 27 94 -2 46 -30 53 -30 109 3 56 33 63 33 96 3 41 -37 166 0 166 49
1 14 17 4 38 -22 52 -67 129 -45 182 53 l41 75 -6 -60 c-4 -54 1 -61 57 -66
81 -8 121 36 85 94 -21 32 -21 46 -1 66 34 34 30 63 -8 48 -60 -23 -71 13 -15
47 50 30 60 31 79 5 54 -73 148 33 148 167 0 83 -59 96 -108 25z"/>
<path d="M8322 2775 c-15 -40 -10 -46 42 -51 85 -10 115 7 102 55 -16 60 -121
57 -144 -4z"/>
<path d="M4908 2749 c-55 -84 -49 -200 10 -194 67 8 101 61 101 160 1 102 -56
119 -111 34z"/>
<path d="M7480 2740 c0 -41 45 -52 108 -28 61 23 36 68 -38 68 -57 0 -70 -8
-70 -40z"/>
<path d="M3645 2737 c-34 -34 -31 -97 4 -97 37 0 95 59 85 87 -11 33 -61 38
-89 10z"/>
<path d="M4228 2709 c-33 -50 -34 -50 -62 -10 -36 53 -102 52 -158 -1 l-45
-42 -22 42 c-51 95 -211 0 -197 -117 7 -63 90 -79 162 -32 43 29 51 29 74 1
34 -40 86 -38 142 7 45 37 47 37 77 -1 72 -88 236 58 173 154 -42 64 -102 64
-144 -1z"/>
<path d="M3004 2654 c-38 -40 -25 -114 20 -114 19 0 96 75 96 93 0 50 -76 64
-116 21z"/>
<path d="M4432 2668 c-18 -47 -17 -48 46 -48 57 0 113 42 88 67 -26 26 -122
13 -134 -19z"/>
<path d="M1210 2656 c-22 -12 -48 -35 -57 -51 -14 -23 -22 -21 -46 13 -40 57
-110 53 -168 -9 -46 -49 -48 -50 -63 -10 -19 52 -84 53 -136 1 -71 -71 -55
-88 75 -80 47 2 65 -5 65 -28 0 -30 74 -47 130 -31 11 3 72 4 136 2 64 -2 133
6 155 18 27 14 39 14 39 0 0 -46 136 -22 177 30 79 100 -13 209 -114 134 -58
-43 -59 -43 -94 -4 -41 45 -45 46 -99 15z"/>
<path d="M3180 2641 c-17 -33 -15 -44 10 -54 43 -16 135 27 125 58 -15 45
-110 42 -135 -4z"/>
<path d="M1635 2617 c-67 -25 -73 -77 -9 -77 60 0 124 47 106 77 -17 27 -23
27 -97 0z"/>
<path d="M7850 2559 c-13 -40 -15 -40 -52 -7 -74 67 -177 -30 -155 -145 15
-76 134 -60 168 22 33 79 76 97 58 24 -10 -40 -3 -49 44 -59 60 -11 107 14
107 57 0 14 -11 30 -25 35 -20 7 -20 17 0 51 36 61 34 63 -54 63 -62 0 -81 -9
-91 -41z"/>
<path d="M7256 2528 c-14 -17 -46 -52 -71 -77 -55 -56 -58 -91 -7 -77 21 5 44
0 51 -12 42 -68 171 13 171 108 0 84 -93 121 -144 58z"/>
<path d="M7448 2510 c-75 -114 38 -223 126 -121 25 29 46 69 46 88 0 90 -119
113 -172 33z"/>
<path d="M4504 2496 c-33 -33 -31 -116 4 -116 38 0 77 51 69 92 -9 44 -42 55
-73 24z"/>
<path d="M3417 2439 c-39 -22 -86 -148 -67 -179 18 -30 115 -24 164 10 37 26
43 26 53 0 15 -38 79 -38 153 0 36 19 62 22 70 10 47 -76 190 12 190 117 0 77
-89 91 -150 23 l-36 -40 -28 40 c-36 51 -109 51 -155 2 -34 -38 -35 -38 -73 0
-42 42 -72 46 -121 17z"/>
<path d="M1178 2397 c-19 -36 -17 -48 13 -70 29 -21 31 -33 13 -51 -41 -41
-27 -74 31 -74 77 1 239 2 485 1 222 -1 300 30 300 117 0 99 -157 122 -193 29
-10 -26 -16 -24 -41 10 -33 48 -100 53 -159 11 -38 -26 -46 -26 -67 0 -35 42
-107 37 -150 -10 -20 -22 -54 -40 -76 -40 -38 0 -38 2 -7 37 36 40 44 83 14
83 -10 0 -25 -10 -32 -22 -10 -15 -20 -15 -35 0 -34 34 -70 26 -96 -21z"/>
<path d="M4064 2416 c-34 -34 -30 -95 8 -109 50 -20 122 62 89 102 -31 37 -64
40 -97 7z"/>
<path d="M3204 2396 c-74 -74 3 -152 83 -83 32 27 54 52 50 55 -11 10 -94 52
-102 52 -4 0 -18 -11 -31 -24z"/>
<path d="M2060 2330 c-14 -17 -20 -37 -13 -43 19 -19 139 20 148 48 12 37
-105 32 -135 -5z"/>
<path d="M582 2311 c14 -14 297 -18 311 -4 8 7 -61 13 -153 13 -92 0 -163 -4
-158 -9z"/>
<path d="M7448 2250 c-60 -60 -61 -60 -74 -10 -24 93 -174 21 -174 -84 0 -108
147 -120 175 -14 10 39 11 39 33 -6 29 -58 104 -70 154 -25 50 46 50 141 -1
168 -53 29 -56 28 -113 -29z"/>
<path d="M7661 2247 c-47 -60 -49 -74 -20 -128 27 -52 109 -50 146 3 l29 42
42 -42 c51 -51 86 -53 126 -7 103 119 -9 261 -114 145 l-36 -40 -28 40 c-39
55 -95 50 -145 -13z"/>
<path d="M5280 2200 c-97 -97 -31 -222 86 -162 62 31 77 33 96 10 32 -39 85
-35 140 9 45 37 47 37 79 -3 70 -86 224 49 165 144 -30 48 -104 51 -154 4 -43
-40 -43 -40 -68 -1 -32 50 -80 50 -136 -3 l-44 -42 -42 42 c-52 52 -72 52
-122 2z"/>
<path d="M7033 2227 c-30 -31 -13 -107 25 -107 69 0 102 23 102 72 0 47 -90
72 -127 35z"/>
<path d="M3780 2190 c-18 -21 -46 -26 -102 -17 -61 9 -80 5 -90 -20 -15 -41
-42 -42 -81 -3 -41 41 -94 38 -136 -9 -36 -40 -36 -40 -86 0 -65 51 -77 49
-136 -14 -108 -117 -25 -220 116 -144 32 17 45 17 51 0 10 -32 95 -29 163 7
71 36 89 7 43 -72 -28 -50 -33 -52 -76 -23 -49 32 -146 -7 -146 -58 0 -13 -22
0 -48 29 -54 58 -120 54 -154 -10 -21 -39 -22 -39 -61 2 -57 61 -177 23 -177
-57 0 -10 -18 -24 -40 -31 -56 -18 -50 -67 11 -90 35 -14 75 -11 135 10 50 17
87 21 91 9 9 -26 90 -24 153 4 39 18 57 18 75 0 53 -53 195 2 195 77 0 40 34
72 55 52 7 -7 2 -23 -11 -36 -42 -42 -27 -76 32 -76 82 0 140 47 107 86 -15
18 -19 51 -12 82 11 43 8 50 -19 40 -58 -22 -34 26 25 51 32 13 69 46 84 72
14 27 42 49 62 49 39 0 86 70 67 100 -18 29 -62 24 -90 -10z"/>
<path d="M4621 2166 c-61 -76 -48 -154 26 -162 111 -13 188 145 94 195 -57 31
-74 26 -120 -33z"/>
<path d="M4840 2180 c-65 -65 -48 -180 28 -180 69 0 132 56 132 117 0 102 -87
136 -160 63z"/>
<path d="M5052 2177 c-78 -112 -7 -217 100 -147 74 48 63 177 -15 186 -37 4
-63 -7 -85 -39z"/>
<path d="M5931 2189 c-50 -50 -38 -89 27 -89 65 0 112 45 95 90 -15 39 -82 39
-122 -1z"/>
<path d="M4401 2161 c-49 -49 -55 -157 -11 -174 52 -20 149 34 163 89 26 103
-76 161 -152 85z"/>
<path d="M4193 2147 c-46 -46 -12 -112 51 -99 80 16 101 36 85 79 -13 33 -109
47 -136 20z"/>
<path d="M1645 2092 c-36 -46 -39 -47 -62 -10 -29 47 -98 49 -161 5 -44 -31
-48 -31 -66 0 -27 49 -96 40 -158 -19 -30 -29 -53 -40 -51 -25 2 15 -6 29 -17
32 -11 2 -20 -11 -20 -30 0 -19 -8 -47 -17 -62 -40 -62 1 -70 337 -62 285 7
294 5 265 -41 -19 -30 -19 -49 -2 -76 15 -24 16 -48 4 -70 -24 -43 -5 -76 34
-61 17 7 70 1 119 -13 67 -19 104 -19 153 -2 43 15 71 16 85 2 32 -32 102 -23
158 20 30 24 56 33 63 21 14 -22 130 -6 160 22 13 12 11 33 -6 60 -19 30 -20
48 -5 63 32 32 27 52 -13 50 -19 -1 -48 2 -63 6 -16 4 -39 -12 -52 -38 -21
-40 -27 -41 -50 -15 -37 46 -96 37 -151 -22 -36 -39 -49 -45 -49 -21 0 18 -19
43 -41 55 -42 22 -51 18 -171 -70 -39 -29 -54 -1 -25 46 29 48 10 79 -28 47
-20 -17 -32 -13 -50 15 -18 30 -17 40 6 49 16 6 29 2 29 -9 0 -30 128 -22 171
10 22 17 67 30 102 30 86 1 165 65 131 107 -26 31 -92 25 -140 -12 -19 -15
-34 -8 -56 23 -36 51 -82 55 -145 11 -42 -29 -48 -29 -81 0 -49 45 -93 40
-137 -16z"/>
<path d="M2965 2107 c-55 -23 -26 -70 40 -63 42 4 65 17 65 36 0 31 -60 46
-105 27z"/>
<path d="M7420 2020 c-16 -30 -33 -39 -57 -29 -91 39 -163 -12 -163 -115 0
-112 142 -100 180 14 28 85 69 95 51 13 -12 -55 17 -81 93 -83 32 0 59 82 36
110 -17 20 -17 38 -1 69 17 31 16 41 -3 41 -14 0 -45 6 -69 12 -32 9 -50 0
-67 -32z"/>
<path d="M6588 1998 c-36 -40 -36 -43 -1 -68 29 -21 32 -35 15 -67 -12 -22
-22 -45 -22 -52 0 -21 132 -11 156 13 18 18 30 16 51 -13 37 -51 123 -27 162
44 27 51 29 52 30 11 2 -111 164 -90 193 25 25 101 -100 152 -161 65 l-31 -45
-31 45 c-41 58 -100 56 -141 -6 -47 -73 -95 -67 -78 10 11 50 8 58 -19 48 -17
-7 -44 -2 -58 10 -20 17 -36 12 -65 -20z"/>
<path d="M5372 1950 c-32 -48 -35 -49 -83 -18 -56 37 -149 -2 -149 -62 0 -17
-9 -30 -20 -30 -11 0 -20 18 -20 41 0 84 -137 75 -177 -13 -52 -114 34 -181
137 -108 51 36 62 38 72 13 17 -46 57 -53 119 -21 38 20 62 23 76 9 62 -62
153 30 153 153 0 102 -53 120 -108 36z"/>
<path d="M4154 1939 c-55 -43 -104 -163 -86 -210 16 -42 65 -36 115 14 l43 43
34 -46 c36 -48 98 -43 162 13 28 24 36 24 58 -2 29 -36 86 -40 143 -9 30 15
56 15 97 -2 70 -29 133 -1 161 73 45 117 -81 174 -160 73 -42 -53 -43 -53 -54
-10 -18 69 -83 76 -147 14 -54 -52 -57 -52 -69 -13 -23 73 -92 76 -155 6 -70
-79 -76 -79 -63 4 14 86 -14 104 -79 52z"/>
<path d="M6413 1907 c-30 -31 -9 -49 50 -43 83 8 102 56 22 56 -32 0 -64 -6
-72 -13z"/>
<path d="M6485 1707 c-14 -6 -39 -37 -56 -69 -61 -118 64 -194 147 -89 l38 49
23 -49 c43 -95 192 -25 179 85 -10 83 -63 103 -135 50 l-60 -45 -41 41 c-41
41 -52 44 -95 27z"/>
<path d="M5830 1676 c-121 -69 -81 -228 47 -187 66 21 94 101 55 160 -37 57
-45 59 -102 27z"/>
<path d="M6019 1659 c-110 -110 -1 -228 118 -128 45 37 63 44 63 23 0 -96 140
-71 179 32 41 108 -83 156 -158 61 -22 -29 -41 -43 -41 -31 0 76 -101 103
-161 43z"/>
<path d="M5571 1636 c-38 -54 -39 -97 -5 -143 60 -83 203 56 153 148 -28 53
-109 50 -148 -5z"/>
<path d="M6867 1650 c-17 -45 7 -90 49 -90 56 0 112 49 98 87 -16 42 -131 45
-147 3z"/>
<path d="M2612 1622 c-4 -6 -7 -54 -7 -106 l-1 -93 75 1 c42 0 92 -8 112 -19
39 -22 134 -3 181 37 22 18 28 16 28 -10 0 -42 82 -42 161 -1 54 27 59 27 59
-3 0 -47 118 -22 165 34 88 107 -14 233 -113 140 l-48 -46 -42 42 c-54 54 -73
53 -131 -6 l-48 -47 -42 48 c-47 54 -94 42 -148 -35 -37 -52 -83 -33 -53 22
11 21 20 40 20 44 0 12 -161 11 -168 -2z"/>
<path d="M5360 1610 c-30 -37 -12 -90 31 -90 55 0 109 40 109 81 0 48 -102 55
-140 9z"/>
<path d="M6497 1431 c-27 -59 -42 -63 -77 -21 -33 40 -65 38 -124 -9 -49 -38
-50 -38 -83 1 -41 47 -105 36 -155 -27 l-32 -40 -11 42 c-17 64 -124 59 -167
-8 l-34 -50 -22 45 c-31 61 -85 68 -151 20 -53 -39 -54 -39 -78 -2 -30 49 -65
48 -130 -3 -48 -38 -56 -39 -84 -10 -60 60 -135 27 -180 -79 -15 -35 -18 -31
-24 24 -17 146 -192 88 -181 -60 7 -93 79 -114 156 -44 31 28 37 28 60 1 35
-44 100 -38 154 12 25 24 46 34 46 21 0 -53 80 -68 150 -27 58 34 71 36 91 12
36 -43 97 -35 145 19 l42 48 22 -43 c30 -62 76 -62 147 -2 48 40 63 45 63 21
0 -82 103 -80 173 4 20 23 28 20 46 -14 25 -47 81 -54 144 -17 34 20 44 20 51
0 33 -89 150 26 154 151 3 95 -73 120 -111 35z"/>
<path d="M3684 1367 c-10 -21 -17 -73 -16 -116 l4 -80 92 6 c50 3 98 -4 105
-16 19 -29 71 -26 138 9 50 26 60 26 86 0 26 -27 25 -30 -9 -30 -58 0 -79 -39
-78 -144 l1 -95 96 9 c57 6 97 1 97 -10 0 -37 119 -21 161 21 l42 42 11 -42
c14 -53 84 -54 152 -1 l51 41 13 -41 c19 -61 169 -27 196 45 5 14 18 2 31 -30
12 -30 32 -55 43 -55 37 0 136 58 145 85 5 16 17 8 32 -20 30 -55 83 -58 144
-8 44 36 46 36 82 0 49 -49 69 -47 129 13 104 104 22 238 -93 152 l-63 -46
-29 42 c-40 57 -74 53 -133 -17 l-49 -58 -22 48 c-38 84 -179 43 -185 -53 -1
-15 -14 1 -30 37 -33 77 -88 85 -152 21 l-43 -43 -29 43 c-38 58 -80 55 -149
-10 -56 -55 -56 -55 -68 -11 -20 75 -87 79 -151 8 -30 -35 -65 -63 -76 -63
-26 0 -26 54 0 70 11 7 20 28 21 46 0 44 99 120 99 77 0 -57 135 -58 181 -1
19 23 28 22 52 -3 41 -40 100 -36 167 11 55 39 55 39 66 0 22 -85 194 0 194
96 0 109 -153 118 -194 12 -9 -24 -16 -20 -34 16 -31 62 -105 70 -162 16 l-47
-44 -22 42 c-28 53 -89 54 -141 2 -40 -40 -40 -40 -80 0 -51 51 -76 50 -132
-2 l-45 -42 -45 42 c-59 54 -70 53 -138 -15 -66 -66 -119 -56 -81 14 19 37 17
43 -17 43 -21 0 -52 5 -69 12 -17 6 -38 -4 -49 -25z"/>
<path d="M2704 1356 c-29 -29 -32 -116 -4 -116 46 0 104 82 79 111 -29 35 -44
36 -75 5z"/>
<path d="M2873 1337 c-145 -84 -79 -275 68 -197 27 15 50 14 78 -4 31 -20 54
-19 109 1 55 19 78 20 109 1 53 -34 159 11 175 72 33 133 -50 196 -143 109
-42 -39 -50 -41 -60 -13 -22 56 -88 62 -141 12 l-48 -45 -41 43 c-46 50 -54
51 -106 21z"/>
<path d="M1715 1306 c35 -5 98 -5 140 -1 41 5 12 8 -65 8 -77 1 -111 -3 -75
-7z"/>
<path d="M3493 1287 c-28 -28 -11 -67 28 -67 51 0 119 35 119 61 0 21 -126 26
-147 6z"/>
<path d="M5515 1144 c-16 -20 -17 -37 -1 -62 14 -22 15 -47 4 -64 -30 -49 -20
-58 63 -58 88 0 122 39 78 91 -19 23 -20 36 -2 54 13 13 23 34 23 47 0 33
-136 27 -165 -8z"/>
<path d="M5752 1082 c-29 -32 -31 -47 -12 -83 l24 -44 51 51 c46 46 48 54 19
82 -39 40 -41 40 -82 -6z"/>
<path d="M2725 1031 l-39 -48 -42 42 c-64 64 -146 30 -180 -74 -44 -137 23
-165 161 -68 55 38 55 38 55 -2 0 -51 89 -56 156 -10 40 28 44 28 44 0 0 -68
173 -14 192 60 33 133 -42 190 -136 103 l-52 -48 -22 47 c-27 61 -89 60 -137
-2z"/>
<path d="M3849 1031 c-25 -38 -27 -57 -9 -92 l23 -43 54 47 c29 26 57 49 62
52 9 6 -72 85 -88 85 -5 0 -24 -22 -42 -49z"/>
<path d="M3173 1023 c-41 -45 -43 -101 -3 -116 47 -18 111 72 83 117 -28 45
-39 45 -80 -1z"/>
<path d="M2315 992 c-46 -35 -44 -86 4 -102 25 -8 53 2 80 29 49 49 51 61 11
61 -16 0 -30 9 -30 20 0 27 -23 24 -65 -8z"/>
<path d="M2969 799 c-7 -13 -38 -16 -73 -8 -46 10 -70 3 -108 -33 l-49 -46
-31 44 c-39 57 -71 55 -145 -6 -35 -30 -72 -45 -91 -38 -41 16 -132 -7 -132
-32 0 -11 40 -20 88 -20 78 0 87 -5 78 -40 -14 -54 31 -68 135 -40 65 18 88
17 99 -1 27 -43 139 -1 181 68 21 35 59 68 84 74 60 14 75 99 18 99 -23 0 -47
-10 -54 -21z"/>
</g>
</svg>
